<?xml version="1.0" encoding="utf-8"?>
<!-- Generator: Adobe Illustrator 24.1.1, SVG Export Plug-In . SVG Version: 6.00 Build 0)  -->
<svg version="1.1" id="Layer_1" xmlns="http://www.w3.org/2000/svg" xmlns:xlink="http://www.w3.org/1999/xlink" x="0px" y="0px"
	 viewBox="0 0 576 121.16" style="enable-background:new 0 0 576 121.16;" xml:space="preserve">
<g>
	<g>
		<path d="M377.74,81.12h-5.28c-5.23,0-9.55-1.68-12.97-5.05c-3.42-3.37-5.13-7.71-5.13-13.04c0-5.38,1.7-9.74,5.09-13.08
			c3.39-3.34,7.73-5.01,13.01-5.01h5.28v2.86h-5.15c-4.49,0-8.17,1.41-11.05,4.23c-2.88,2.82-4.31,6.48-4.31,10.96
			c0,4.54,1.41,8.19,4.24,10.96c2.82,2.77,6.53,4.16,11.12,4.16h5.15V81.12z"/>
		<path d="M419.44,63.4c0,5.03-1.75,9.36-5.24,13.01c-3.49,3.64-7.75,5.47-12.78,5.47c-5.08,0-9.34-1.8-12.78-5.39
			c-3.44-3.59-5.16-7.95-5.16-13.08c0-5.08,1.73-9.42,5.2-13.04c3.47-3.62,7.71-5.43,12.74-5.43c5.08,0,9.35,1.81,12.82,5.43
			C417.7,53.98,419.44,58.33,419.44,63.4z M416.42,63.4c0-4.22-1.44-7.92-4.31-11.08c-2.87-3.17-6.45-4.75-10.73-4.75
			c-4.23,0-7.8,1.57-10.7,4.71c-2.9,3.14-4.35,6.85-4.35,11.12c0,4.22,1.44,7.9,4.31,11.05c2.87,3.14,6.45,4.71,10.73,4.71
			c4.28,0,7.86-1.56,10.73-4.67C414.98,71.37,416.42,67.68,416.42,63.4z"/>
		<path d="M459.47,63.4c0,5.33-1.65,9.74-4.94,13.23c-3.29,3.49-7.4,5.24-12.33,5.24c-4.83,0-8.91-1.76-12.25-5.28
			c-3.34-3.52-5.01-7.92-5.01-13.19c0-5.33,1.64-9.74,4.93-13.23c3.28-3.49,7.38-5.24,12.29-5.24c2.46,0,4.71,0.5,6.77,1.51
			c1.2,0.6,2.63,1.58,4.29,2.94v3.39c-1.66-1.76-3.34-3.07-5.05-3.92c-1.71-0.85-3.72-1.28-6.03-1.28c-3.77,0-7.1,1.52-9.99,4.56
			c-2.89,3.04-4.34,6.8-4.34,11.27c0,4.47,1.46,8.22,4.37,11.23c2.91,3.02,6.23,4.52,9.95,4.52c4.17,0,7.63-1.56,10.37-4.67
			c2.74-3.12,4.11-6.81,4.11-11.08V28.65h2.87V63.4z"/>
		<path d="M504.1,64.16c0,4.78-1.76,8.92-5.28,12.44c-3.52,3.52-7.77,5.28-12.74,5.28c-5.48,0-10.02-1.75-13.61-5.24
			c-3.59-3.49-5.39-7.88-5.39-13.16c0-5.18,1.71-9.56,5.13-13.16c3.42-3.59,7.84-5.39,13.27-5.39c3.37,0,6.43,0.78,9.2,2.34
			c2.76,1.56,4.95,3.67,6.56,6.33L475.9,70.79l-1.82-2.32l22.88-15.44c-2.88-3.64-6.71-5.47-11.5-5.47c-4.44,0-8.14,1.6-11.09,4.79
			c-2.95,3.19-4.43,6.95-4.43,11.27c0,4.27,1.47,7.93,4.42,10.97c2.95,3.04,6.64,4.56,11.07,4.56c4.28,0,7.95-1.47,11-4.41
			c3.05-2.94,4.57-6.47,4.57-10.59H504.1z"/>
		<path d="M536.44,72c0,3.02-1.07,5.29-3.21,6.82c-2.14,1.53-5.23,2.3-9.26,2.3h-15.2v-2.71h15.88c2.97,0,5.16-0.53,6.54-1.58
			c1.39-1.06,2.08-2.51,2.08-4.37c0-3.22-2.11-5.55-6.33-7.01c-3.92-1.06-7.84-2.11-11.76-3.17c-4.27-1.61-6.41-4.27-6.41-7.99
			c0-2.51,0.79-4.59,2.37-6.22c1.58-1.63,3.81-2.45,6.67-2.45h15.91v2.71h-15.68c-1.66,0-3.1,0.52-4.34,1.55
			c-1.23,1.03-1.85,2.48-1.85,4.34c0,2.82,2.11,4.85,6.33,6.11c3.92,1.06,7.87,2.11,11.84,3.17C534.31,65.19,536.44,68.03,536.44,72
			z"/>
	</g>
	<g>
		<g>
			<path d="M342.79,82.04c-1.52,0-2.83-0.49-3.94-1.47c-1.1-0.98-1.66-2.36-1.66-4.12c0-1.5,0.53-2.78,1.58-3.87
				c1.06-1.08,2.36-1.62,3.9-1.62c1.55,0,2.87,0.53,3.96,1.6c1.09,1.07,1.64,2.36,1.64,3.88c0,1.74-0.55,3.11-1.64,4.1
				C345.55,81.55,344.26,82.04,342.79,82.04z"/>
		</g>
	</g>
	<g>
		<path d="M74.91,64.26c0,4.81-1.05,8.51-3.16,11.11c-3.14,3.84-8.73,5.76-16.78,5.76h-15V68.07h14.51c3.51,0,5.27-1.03,5.27-3.08
			c0-1.51-1.73-3.49-5.19-5.92c-5.19-3.62-8.43-6.08-9.73-7.38c-3.51-3.46-5.27-7.14-5.27-11.03c0-5.51,1.73-9.65,5.19-12.41
			c2.97-2.38,6.92-3.57,11.84-3.57h14.68v13.05H57.07c-0.97,0-1.76,0.18-2.35,0.53c-0.6,0.35-0.89,0.96-0.89,1.82
			c0,1.19,1.81,3,5.43,5.43c5.24,3.51,8.62,6.03,10.14,7.54C73.07,56.64,74.91,60.37,74.91,64.26z"/>
		<path d="M121.36,66.69c-1.95,4.54-4.86,8.23-8.76,11.07c-3.89,2.84-8.22,4.26-12.97,4.26c-5.41,0-10.12-2.01-14.15-6.03
			c-4.03-4.02-6.04-8.83-6.04-14.45c0-5.61,1.99-10.43,5.96-14.44s8.72-6.03,14.23-6.03c4.32,0,8.05,1.08,11.19,3.24
			c3.13,2.16,5.81,5.24,8.03,9.24L99.39,66.77l-4.99-7.69l10.65-6.84c-0.86-0.53-1.7-0.89-2.51-1.08c-0.81-0.19-1.65-0.28-2.51-0.28
			c-2.48,0-4.47,1.02-5.95,3.07c-1.48,2.05-2.23,4.36-2.23,6.95c0,2.53,0.81,4.81,2.43,6.82c1.62,2.02,3.7,3.03,6.24,3.03
			c2.32,0,4.57-0.86,6.73-2.59c2.16-1.73,3.76-3.78,4.78-6.16L121.36,66.69z"/>
		<path d="M168.39,97.99H155.5V63.21c0-3.19-0.76-5.72-2.28-7.58c-1.52-1.86-3.8-2.8-6.84-2.8c-2.55,0-4.67,0.81-6.35,2.42
			c-1.68,1.61-2.52,3.71-2.52,6.3c0,2.58,0.84,4.68,2.53,6.3c1.68,1.61,3.81,2.42,6.36,2.42c1.36,0,2.45-0.09,3.26-0.26
			c0.82-0.17,1.52-0.44,2.12-0.79v11.84c-0.65,0.27-1.49,0.5-2.52,0.69c-1.03,0.19-2.28,0.28-3.74,0.28c-5.64,0-10.41-1.7-14.31-5.1
			c-4.39-3.77-6.59-8.87-6.59-15.29c0-5.88,2.01-10.77,6.04-14.69c4.03-3.91,9.18-5.87,15.45-5.87c6.11,0,11.24,1.6,15.41,4.78
			c4.59,3.51,6.89,8.24,6.89,14.19V97.99z"/>
		<path d="M208.77,64.38c0,5.23-1.47,9.48-4.42,12.74c-2.95,3.26-7.09,4.9-12.45,4.9c-5.3,0-9.42-1.63-12.37-4.9
			c-2.95-3.26-4.42-7.51-4.42-12.74V42.04h12.41v22.31c0,3.61,1.46,5.42,4.38,5.42c1.35,0,2.43-0.48,3.24-1.45
			c0.81-0.97,1.22-2.29,1.22-3.96V42.04h12.41V64.38z"/>
		<path d="M254.82,61.54c0,5.61-2.01,10.43-6.04,14.45c-4.03,4.02-8.77,6.03-14.23,6.03c-5.41,0-10.12-2.01-14.15-6.03
			c-4.03-4.02-6.04-8.83-6.04-14.45c0-5.61,1.99-10.43,5.96-14.44s8.72-6.03,14.23-6.03c5.46,0,10.2,2.01,14.23,6.03
			C252.81,51.12,254.82,55.93,254.82,61.54z M242.33,61.54c0-2.31-0.74-4.26-2.23-5.85c-1.49-1.59-3.34-2.38-5.55-2.38
			c-2.22,0-4.07,0.79-5.55,2.38c-1.49,1.59-2.23,3.54-2.23,5.85c0,2.26,0.73,4.2,2.19,5.81c1.46,1.61,3.32,2.42,5.59,2.42
			s4.14-0.81,5.59-2.42C241.61,65.74,242.33,63.8,242.33,61.54z"/>
		<path d="M275.66,31.1c0,2.05-0.71,3.78-2.12,5.19c-1.41,1.41-3.15,2.11-5.22,2.11c-2.07,0-3.81-0.7-5.22-2.11
			c-1.41-1.41-2.12-3.13-2.12-5.19c0-2.11,0.71-3.86,2.12-5.27c1.41-1.41,3.15-2.11,5.22-2.11c2.07,0,3.8,0.7,5.22,2.11
			C274.95,27.23,275.66,28.99,275.66,31.1z M274.77,81.13h-12.89V42.04h12.89V81.13z"/>
		<path d="M325.44,81.13h-12.89v-18c0-6.86-3.04-10.3-9.12-10.3c-2.45,0-4.54,0.81-6.27,2.42c-1.74,1.61-2.61,3.63-2.61,6.05
			c0,2.8,0.9,5.03,2.69,6.7c1.63,1.51,3.59,2.26,5.87,2.26c1.31,0,2.43-0.09,3.38-0.26c0.95-0.17,1.89-0.44,2.81-0.79v10.55
			c-1.14,0.81-2.4,1.38-3.78,1.73c-1.38,0.35-3.05,0.52-5,0.52c-4.66,0-8.84-1.7-12.52-5.1c-4.23-3.88-6.34-8.98-6.34-15.29
			c0-5.88,2.01-10.77,6.04-14.69c4.03-3.91,9.17-5.87,15.44-5.87c6.43,0,11.68,1.6,15.73,4.78c4.38,3.46,6.57,8.19,6.57,14.19V81.13
			z"/>
	</g>
</g>
</svg>
